<?xml version="1.0" encoding="utf-8"?>
<!-- Generator: Adobe Illustrator 25.0.0, SVG Export Plug-In . SVG Version: 6.00 Build 0)  -->
<svg version="1.1" id="Layer_1" xmlns="http://www.w3.org/2000/svg" xmlns:xlink="http://www.w3.org/1999/xlink" x="0px" y="0px"
	 viewBox="0 0 28.9 28.9" style="enable-background:new 0 0 28.9 28.9;" xml:space="preserve">
<style type="text/css">
	.st0{fill:#2A5AFC;}
</style>
<path class="st0" d="M21.6,13.2C21.2,13,20.8,13,20.5,13c-0.7,0-1.4,0.5-1.7,1.1c-0.1,0.2-0.1,0.4-0.2,0.6c0,0.1,0,0.2,0,0.2l4.2,0
	c0-0.1,0-0.2,0-0.3C22.7,14,22.2,13.4,21.6,13.2z"/>
<path class="st0" d="M11.4,12.8c0.3-0.1,0.5-0.4,0.5-0.7c0.1-0.3,0.1-0.5,0-0.8c0-0.5-0.4-0.9-0.8-1c-0.4-0.1-0.8-0.2-1.3-0.2H7.3
	l0,2.9h2.9C10.6,13.1,11,13,11.4,12.8z"/>
<path class="st0" d="M11.2,15.4c-0.3-0.1-0.6-0.2-1-0.2h-3v3.4h2.8c0.3,0,0.6,0,0.8-0.1c0.6-0.1,1.2-0.6,1.3-1.2c0-0.2,0-0.5,0-0.7
	C12.2,16.1,11.8,15.6,11.2,15.4z"/>
<path class="st0" d="M24.9,0H4C1.8,0,0,1.8,0,4v20.8c0,2.2,1.8,4,4,4h20.8c2.2,0,4-1.8,4-4V4C28.9,1.8,27.1,0,24.9,0z M18,8.4h5.3
	v1.5l-5.3,0V8.4z M14.6,18.7c-0.5,1.1-1.6,1.9-2.8,2.1c-0.6,0.1-1.1,0.1-1.7,0.1H4.2v-13h6.4c0.7,0,1.4,0.1,2,0.4
	c1,0.4,1.7,1.3,1.8,2.4c0.1,0.6,0,1.2-0.2,1.8c-0.2,0.5-0.6,1-1.2,1.3L13,13.9h0.1c1,0.4,1.7,1.2,1.8,2.2C15.1,17,15,17.9,14.6,18.7
	z M25.3,16.6h-6.8c0,0.1,0,0.3,0,0.4c0,0.3,0.1,0.5,0.2,0.8c0.3,0.6,0.9,1,1.5,1.1c0.4,0.1,0.8,0.1,1.1,0c0.5-0.1,1-0.5,1.3-1
	c0,0,0.1-0.1,0.1-0.1h2.5c0,0.1,0,0.3-0.1,0.4c-0.2,0.5-0.4,0.9-0.7,1.3c-0.7,0.8-1.6,1.3-2.6,1.4c-0.8,0.1-1.6,0.1-2.4-0.1
	c-0.8-0.2-1.6-0.7-2.2-1.3c-0.5-0.5-0.8-1.1-0.9-1.8c-0.3-1.2-0.2-2.5,0.2-3.7c0.4-1.6,1.8-2.7,3.4-3c1-0.2,2.1-0.1,3.1,0.3
	c0.9,0.4,1.6,1.1,2,2c0.3,0.6,0.4,1.2,0.4,1.9C25.3,15.6,25.3,16.1,25.3,16.6C25.3,16.5,25.3,16.6,25.3,16.6z"/>
</svg>
