<?xml version="1.0" encoding="utf-8"?>
<!-- Generator: Adobe Illustrator 25.0.0, SVG Export Plug-In . SVG Version: 6.00 Build 0)  -->
<svg version="1.1" id="Layer_1" xmlns="http://www.w3.org/2000/svg" xmlns:xlink="http://www.w3.org/1999/xlink" x="0px" y="0px"
	 viewBox="0 0 512 512" style="enable-background:new 0 0 512 512;" xml:space="preserve">
<style type="text/css">
	.st0{fill:#8A9CFE;}
</style>
<path class="st0" d="M216.4,220.8c-12.5,0-22.3,10.9-22.3,24.3c0,13.3,10.1,24.3,22.3,24.3c12.5,0,22.3-10.9,22.3-24.3
	C239,231.7,228.9,220.8,216.4,220.8z"/>
<path class="st0" d="M296.2,220.8c-12.5,0-22.3,10.9-22.3,24.3c0,13.3,10.1,24.3,22.3,24.3c12.5,0,22.3-10.9,22.3-24.3
	C318.5,231.7,308.7,220.8,296.2,220.8z"/>
<path class="st0" d="M447.2,82.5c0-24.9-20.1-45-44.8-45H109.6c-24.7,0-44.8,20.1-44.8,45V378c0,24.9,20.1,45,44.8,45H350l-4.2-40.4
	c64,59.5,46.4,43.4,101.4,92V82.5z M318.1,322.9c0,0-7.9-9.4-14.4-17.7c28.6-8.1,39.6-26,39.6-26c-9,5.9-17.5,10.1-25.1,12.9
	c-47.1,19.8-99.5,13-136.4-7.7c-0.4-0.3-5.7-3.2-9-5.5c0,0,10.5,17.5,38.2,25.8c-6.6,8.3-14.6,18.1-14.6,18.1
	c-48.3-1.5-66.7-33.2-66.7-33.2c0-70.4,31.5-127.4,31.5-127.4c31.5-23.6,61.4-23,61.4-23l2.2,2.6c-39.3,11.4-57.5,28.6-57.5,28.6
	s4.8-2.6,12.9-6.3c50.4-22.1,111.4-22.1,163.3,6.3c0,0-17.3-16.4-54.4-27.8l3.1-3.5c0,0,29.9-0.7,61.4,23c0,0,31.5,57,31.5,127.4
	C385,289.7,366.4,321.4,318.1,322.9z"/>
</svg>
