<?xml version="1.0" encoding="utf-8"?>
<!-- Generator: Adobe Illustrator 25.0.0, SVG Export Plug-In . SVG Version: 6.00 Build 0)  -->
<svg version="1.1" id="Layer_1" xmlns="http://www.w3.org/2000/svg" xmlns:xlink="http://www.w3.org/1999/xlink" x="0px" y="0px"
	 viewBox="0 0 128 128" style="enable-background:new 0 0 128 128;" xml:space="preserve">
<style type="text/css">
	.st0{fill:#176AE6;}
</style>
<path class="st0" d="M64,0C28.7,0,0,28.7,0,64c0,31.9,23.4,58.3,53.9,63.2v-7.9V81H37.2V64.3h16.8V48.8c0-15.6,9.2-24.8,23.1-24.8
	c6.7,0,13.8,1.6,13.8,1.6v16.9l-11.2,0c-7.6,0-9,3.8-9,9v12.8H90L87.3,81H70.7v38.3v8.4v0C102.9,124.3,128,97.1,128,64
	C128,28.7,99.3,0,64,0z"/>
</svg>
