<?xml version="1.0" encoding="utf-8"?>
<!-- Generator: Adobe Illustrator 25.0.0, SVG Export Plug-In . SVG Version: 6.00 Build 0)  -->
<svg version="1.1" id="Layer_1" xmlns="http://www.w3.org/2000/svg" xmlns:xlink="http://www.w3.org/1999/xlink" x="0px" y="0px"
	 viewBox="0 0 64 64" style="enable-background:new 0 0 64 64;" xml:space="preserve">
<style type="text/css">
	.st0{fill:url(#SVGID_1_);}
	.st1{fill:url(#SVGID_2_);}
	.st2{fill:url(#SVGID_3_);}
</style>
<radialGradient id="SVGID_1_" cx="-1484.2833" cy="1521.2089" r="197.06" gradientTransform="matrix(-0.75 0 0 0.75 -1114.5 -1078.2067)" gradientUnits="userSpaceOnUse">
	<stop  offset="0" style="stop-color:#F9ED32"/>
	<stop  offset="0.36" style="stop-color:#EE2A7B"/>
	<stop  offset="0.44" style="stop-color:#D22A8A"/>
	<stop  offset="0.6" style="stop-color:#8B2AB2"/>
	<stop  offset="0.83" style="stop-color:#1B2AF0"/>
	<stop  offset="0.88" style="stop-color:#002AFF"/>
</radialGradient>
<path class="st0" d="M44,12.8H20c-4,0-7.2,3.2-7.2,7.2v24c0,4,3.2,7.2,7.2,7.2h24c4,0,7.2-3.2,7.2-7.2V20C51.2,16,48,12.8,44,12.8z
	 M32,45.6c-7.5,0-13.6-6.1-13.6-13.6S24.5,18.4,32,18.4S45.6,24.5,45.6,32C45.6,39.5,39.5,45.6,32,45.6z M45.6,21.6
	c-1.3,0-2.4-1.1-2.4-2.4s1.1-2.4,2.4-2.4c1.3,0,2.4,1.1,2.4,2.4S46.9,21.6,45.6,21.6z"/>
<radialGradient id="SVGID_2_" cx="-1484.2833" cy="1521.2089" r="197.06" gradientTransform="matrix(-0.75 0 0 0.75 -1114.5 -1078.2067)" gradientUnits="userSpaceOnUse">
	<stop  offset="0" style="stop-color:#F9ED32"/>
	<stop  offset="0.36" style="stop-color:#EE2A7B"/>
	<stop  offset="0.44" style="stop-color:#D22A8A"/>
	<stop  offset="0.6" style="stop-color:#8B2AB2"/>
	<stop  offset="0.83" style="stop-color:#1B2AF0"/>
	<stop  offset="0.88" style="stop-color:#002AFF"/>
</radialGradient>
<path class="st1" d="M32,23.2c-4.9,0-8.8,3.9-8.8,8.8s3.9,8.8,8.8,8.8s8.8-3.9,8.8-8.8C40.8,27.1,36.9,23.2,32,23.2z"/>
<radialGradient id="SVGID_3_" cx="-1484.2833" cy="1521.2089" r="197.06" gradientTransform="matrix(-0.75 0 0 0.75 -1114.5 -1078.2067)" gradientUnits="userSpaceOnUse">
	<stop  offset="0" style="stop-color:#F9ED32"/>
	<stop  offset="0.36" style="stop-color:#EE2A7B"/>
	<stop  offset="0.44" style="stop-color:#D22A8A"/>
	<stop  offset="0.6" style="stop-color:#8B2AB2"/>
	<stop  offset="0.83" style="stop-color:#1B2AF0"/>
	<stop  offset="0.88" style="stop-color:#002AFF"/>
</radialGradient>
<path class="st2" d="M52.8,0H11.2C5,0,0,5,0,11.2v41.6C0,59,5,64,11.2,64h41.6C59,64,64,59,64,52.8V11.2C64,5,59,0,52.8,0z M56,44
	c0,6.6-5.4,12-12,12H20c-6.6,0-12-5.4-12-12V20c0-6.6,5.4-12,12-12h24c6.6,0,12,5.4,12,12V44z"/>
</svg>
