<?xml version="1.0" encoding="utf-8"?>
<!-- Generator: Adobe Illustrator 25.0.0, SVG Export Plug-In . SVG Version: 6.00 Build 0)  -->
<svg version="1.1" id="Layer_1" xmlns="http://www.w3.org/2000/svg" xmlns:xlink="http://www.w3.org/1999/xlink" x="0px" y="0px"
	 viewBox="0 0 250 250" style="enable-background:new 0 0 250 250;" xml:space="preserve">
<style type="text/css">
	.st0{fill:url(#SVGID_1_);}
	.st1{fill:url(#SVGID_2_);}
	.st2{fill:url(#SVGID_3_);}
</style>
<linearGradient id="SVGID_1_" gradientUnits="userSpaceOnUse" x1="166.5805" y1="-0.6695" x2="166.5805" y2="249.5533">
	<stop  offset="0" style="stop-color:#111D2E"/>
	<stop  offset="0.2125" style="stop-color:#051839"/>
	<stop  offset="0.4069" style="stop-color:#0A1B48"/>
	<stop  offset="0.5811" style="stop-color:#132E62"/>
	<stop  offset="0.7376" style="stop-color:#144B7E"/>
	<stop  offset="0.8728" style="stop-color:#136497"/>
	<stop  offset="1" style="stop-color:#1387B8"/>
</linearGradient>
<path class="st0" d="M166.6,129.1c17.5,0,31.8-14,31.8-31.2c0-17.2-14.3-31.2-31.8-31.2c-17.5,0-31.8,14-31.8,31.2
	C134.8,115.1,149.1,129.1,166.6,129.1z M166.6,74.4c13.2,0,23.9,10.5,23.9,23.4c0,12.9-10.7,23.4-23.9,23.4
	c-13.2,0-23.9-10.5-23.9-23.4C142.8,84.9,153.5,74.4,166.6,74.4z"/>
<linearGradient id="SVGID_2_" gradientUnits="userSpaceOnUse" x1="88.0946" y1="-0.6695" x2="88.0946" y2="249.5533">
	<stop  offset="0" style="stop-color:#111D2E"/>
	<stop  offset="0.2125" style="stop-color:#051839"/>
	<stop  offset="0.4069" style="stop-color:#0A1B48"/>
	<stop  offset="0.5811" style="stop-color:#132E62"/>
	<stop  offset="0.7376" style="stop-color:#144B7E"/>
	<stop  offset="0.8728" style="stop-color:#136497"/>
	<stop  offset="1" style="stop-color:#1387B8"/>
</linearGradient>
<path class="st1" d="M76.4,200.7c13.7,5.6,29.4-0.8,35.1-14.2c2.8-6.5,2.8-13.7,0-20.2s-7.9-11.6-14.5-14.3
	c-6.6-2.7-13.6-2.6-19.8-0.3l16,6.5c10.1,4.1,14.9,15.5,10.6,25.4c-4.2,9.9-15.8,14.6-25.9,10.5l-15.5-6.3
	C65.3,193.4,70.1,198.1,76.4,200.7z"/>
<linearGradient id="SVGID_3_" gradientUnits="userSpaceOnUse" x1="125" y1="-0.6695" x2="125" y2="249.3305">
	<stop  offset="0" style="stop-color:#111D2E"/>
	<stop  offset="0.2125" style="stop-color:#051839"/>
	<stop  offset="0.4069" style="stop-color:#0A1B48"/>
	<stop  offset="0.5811" style="stop-color:#132E62"/>
	<stop  offset="0.7376" style="stop-color:#144B7E"/>
	<stop  offset="0.8728" style="stop-color:#136497"/>
	<stop  offset="1" style="stop-color:#1387B8"/>
</linearGradient>
<path class="st2" d="M124.9,0C58.5,0,4.3,51.5,0,116.7c1,1.7,2,3.4,2.8,5l64.8,26.1c1.8-1.2,3.8-2.2,5.9-3c4.7-1.9,9.7-2.8,14.7-2.5
	l30.7-43.7c0-0.2,0-0.4,0-0.6c0-25.8,21.4-46.8,47.7-46.8c26.3,0,47.7,21,47.7,46.8c0,25.8-21.4,46.8-47.7,46.8c-0.4,0-0.7,0-1.1,0
	l-43.9,30.8c0.1,4.8-0.8,9.5-2.7,14.1c-7.4,17.4-27.8,25.6-45.5,18.4c-10.8-4.4-18.2-13.6-20.6-24.1L6.3,165
	c16.7,49.4,63.5,85,118.6,85C194,250,250,194,250,125C250,56,194,0,124.9,0z"/>
</svg>
