<?xml version="1.0" encoding="utf-8"?>
<!-- Generator: Adobe Illustrator 25.0.0, SVG Export Plug-In . SVG Version: 6.00 Build 0)  -->
<svg version="1.1" id="Layer_1" xmlns:serif="http://www.serif.com/"
	 xmlns="http://www.w3.org/2000/svg" xmlns:xlink="http://www.w3.org/1999/xlink" x="0px" y="0px" viewBox="0 0 851.9 774"
	 style="enable-background:new 0 0 851.9 774;" xml:space="preserve">
<style type="text/css">
	.st0{fill:#2AA9E0;}
</style>
<g id="layer1" transform="translate(-282.32053,-396.30734)">
	<path id="path5" class="st0" d="M1134.2,561.6c-31,13.8-64.2,23-99.2,27.3c35.6-21.4,63.1-55.2,76.1-95.6
		c-33.3,19.9-70.3,34.2-109.7,41.9c-31.5-33.5-76.4-54.5-126.2-54.5c-95.4,0-172.8,77.4-172.8,172.8c0,13.5,1.5,26.8,4.4,39.4
		c-143.6-7.2-270.9-76.1-356.1-180.5c-14.9,25.5-23.3,55.2-23.3,86.9c0,60,30.6,112.9,76.9,143.9c-28.3-0.8-55-8.7-78.2-21.7
		c0,0.7,0,1.5,0,2.1c0,83.8,59.6,153.6,138.6,169.5c-14.5,3.9-29.7,6.1-45.5,6.1c-11.2,0-22-1.1-32.5-3.1
		c22,68.7,85.8,118.6,161.5,120.1c-59.1,46.3-133.7,73.9-214.5,73.9c-14,0-27.8-0.8-41.2-2.5c76.6,49,167.2,77.7,265,77.7
		c317.9,0,491.7-263.3,491.7-491.7c0-7.6-0.2-14.9-0.5-22.3C1081.8,626.6,1111.1,596.2,1134.2,561.6L1134.2,561.6z"/>
</g>
</svg>
