<?xml version="1.0" encoding="utf-8"?>
<!-- Generator: Adobe Illustrator 25.0.1, SVG Export Plug-In . SVG Version: 6.00 Build 0)  -->
<svg version="1.1" id="Layer_1" xmlns="http://www.w3.org/2000/svg" xmlns:xlink="http://www.w3.org/1999/xlink" x="0px" y="0px"
	 viewBox="0 0 512 546" style="enable-background:new 0 0 512 546;" xml:space="preserve">
<style type="text/css">
	.st0{fill:#8A9CFE;}
</style>
<path class="st0" d="M209.6,239.8c-14.6,0-26.1,12.8-26.1,28.5c0,15.6,11.8,28.5,26.1,28.5c14.6,0,26.1-12.8,26.1-28.5
	C236.1,252.5,224.3,239.8,209.6,239.8z"/>
<path class="st0" d="M303.1,239.8c-14.6,0-26.1,12.8-26.1,28.5c0,15.6,11.8,28.5,26.1,28.5c14.6,0,26.1-12.8,26.1-28.5
	S317.7,239.8,303.1,239.8z"/>
<path class="st0" d="M479.9,77.8c0-29.2-23.5-52.7-52.5-52.7H84.5c-28.9,0-52.5,23.5-52.5,52.7v346.1c0,29.2,23.5,52.7,52.5,52.7
	h281.5l-4.9-47.3c75,69.7,54.3,50.8,118.8,107.7L479.9,77.8L479.9,77.8z M328.7,359.3c0,0-9.3-11-16.9-20.7
	c33.5-9.5,46.4-30.4,46.4-30.4c-10.5,6.9-20.5,11.8-29.4,15.1c-55.2,23.2-116.5,15.2-159.7-9c-0.5-0.4-6.7-3.7-10.5-6.4
	c0,0,12.3,20.5,44.7,30.2c-7.7,9.7-17.1,21.2-17.1,21.2c-56.6-1.8-78.1-38.9-78.1-38.9c0-82.4,36.9-149.2,36.9-149.2
	c36.9-27.6,71.9-26.9,71.9-26.9l2.6,3c-46,13.4-67.3,33.5-67.3,33.5s5.6-3,15.1-7.4c59-25.9,130.5-25.9,191.2,7.4
	c0,0-20.3-19.2-63.7-32.6l3.6-4.1c0,0,35-0.8,71.9,26.9c0,0,36.9,66.8,36.9,149.2C407.1,320.5,385.3,357.6,328.7,359.3z"/>
</svg>
