<?xml version="1.0" encoding="utf-8"?>
<!-- Generator: Adobe Illustrator 25.0.0, SVG Export Plug-In . SVG Version: 6.00 Build 0)  -->
<svg version="1.1" id="Layer_1" xmlns="http://www.w3.org/2000/svg" xmlns:xlink="http://www.w3.org/1999/xlink" x="0px" y="0px"
	 viewBox="0 0 256 302" style="enable-background:new 0 0 256 302;" xml:space="preserve">
<style type="text/css">
	.st0{fill:#27346A;}
	.st1{fill:#2790C3;}
	.st2{fill:#1F264F;}
</style>
<g>
	<path class="st0" d="M198.2,26.6c-11-12.5-30.8-17.9-56.2-17.9H68.3c-5.2,0-9.6,3.8-10.4,8.9L27.2,212.2c-0.6,3.8,2.4,7.3,6.2,7.3
		h45.5l11.4-72.5l-0.4,2.3c0.8-5.1,5.2-8.9,10.4-8.9H122c42.5,0,75.7-17.2,85.4-67.1c0.3-1.5,0.5-2.9,0.8-4.3c-1.2-0.6-1.2-0.6,0,0
		C211,50.5,208.1,38,198.2,26.6"/>
	<path class="st0" d="M107.7,62.3c1.2-0.6,2.6-0.9,4-0.9h57.8c6.8,0,13.2,0.4,19.1,1.4c1.7,0.3,3.3,0.6,4.9,0.9
		c1.6,0.3,3.1,0.7,4.6,1.2c0.7,0.2,1.5,0.4,2.2,0.7c2.9,1,5.5,2.1,8,3.4c2.9-18.4,0-31-10-42.4c-11-12.5-30.8-17.9-56.2-17.9H68.3
		c-5.2,0-9.6,3.8-10.4,8.9L27.2,212.2c-0.6,3.8,2.4,7.3,6.2,7.3h45.5l23.7-150.3C103.1,66.1,105.1,63.6,107.7,62.3z"/>
	<path class="st1" d="M207.4,73.3c-9.7,49.9-43,67.1-85.4,67.1h-21.6c-5.2,0-9.6,3.8-10.4,8.9l-14.2,90.1c-0.5,3.4,2.1,6.4,5.5,6.4
		h38.3c4.5,0,8.4-3.3,9.1-7.8l0.4-2l7.2-45.8l0.5-2.5c0.7-4.5,4.6-7.8,9.1-7.8h5.7c37.1,0,66.2-15.1,74.7-58.7
		c3.5-18.2,1.7-33.5-7.7-44.2c-2.8-3.2-6.4-5.9-10.5-8.1C207.9,70.4,207.7,71.8,207.4,73.3L207.4,73.3z"/>
	<path class="st2" d="M198,64.9c-1.5-0.4-3-0.8-4.6-1.2c-1.6-0.3-3.2-0.7-4.9-0.9c-5.8-0.9-12.2-1.4-19.1-1.4h-57.8
		c-1.4,0-2.8,0.3-4,0.9c-2.7,1.3-4.6,3.8-5.1,6.9l-12.3,77.8l-0.4,2.3c0.8-5.1,5.2-8.9,10.4-8.9H122c42.5,0,75.7-17.2,85.4-67.1
		c0.3-1.5,0.5-2.9,0.8-4.3c-2.5-1.3-5.1-2.4-8-3.4C199.5,65.4,198.7,65.1,198,64.9"/>
</g>
</svg>
