<?xml version="1.0" encoding="utf-8"?>
<!-- Generator: Adobe Illustrator 25.0.0, SVG Export Plug-In . SVG Version: 6.00 Build 0)  -->
<svg version="1.1" id="Layer_1" xmlns="http://www.w3.org/2000/svg" xmlns:xlink="http://www.w3.org/1999/xlink" x="0px" y="0px"
	 viewBox="0 0 133.1 128" style="enable-background:new 0 0 133.1 128;" xml:space="preserve">
<style type="text/css">
	.st0{fill:#FCC21B;}
	.st1{fill:#E39E49;}
	.st2{fill:#4285F4;}
</style>
<path class="st0" d="M62,45.3V5.7c0-1.2-0.3-2.3-0.9-3.3c-2.1-3.1-6.6-3.3-8.9-0.3l-0.4,0.5c-0.5,0.7-0.9,1.5-1.1,2.3l-3,32.9
	c-1.2,14.8-3.8,18.3-7.1,34C39,79.5,53.4,104,53.4,104s5.9,3,5.8-11.3C59.1,87.6,62,45.3,62,45.3z"/>
<path class="st0" d="M50.7,28c0-8.9,11.4-8.2,11.3,0v30.3v36.2c0.2,10.9-7.9,11.4-7.9,11.4l0,0c-6.4,0-12-4.4-13.4-10.6L39.9,92
	c-2.8-23.5,5.8-39.8,5.8-39.8c4-11.4,5.1-22,5.1-24.7"/>
<path class="st0" d="M40.4,74.4c0,0-9,14.8-15.8,18.4s14.8,32.9,14.8,32.9S51,106.3,54.6,106"/>
<path class="st0" d="M61.5,103.1c0,0,0.6,1.6,0.4-10.8C61.8,79.8,62,51,62,51V16.5c0-1.1-0.4-2.1-1.2-2.9l0,0
	c-0.4-0.5-0.9-0.8-1.4-1.1c-3.1-1.7-7,0.2-8,3.5l-0.6,11.6"/>
<path class="st1" d="M62,19.4c0-0.1,0-0.2,0-0.4l0,0v1c0,0,0,0,0-0.1S62,19.6,62,19.4z"/>
<path class="st1" d="M62,38.3L62,38.3v0.8C62,39.1,62,38.8,62,38.3L62,38.3z"/>
<path class="st1" d="M63.7,32.7c0.1,0.1,0.2,0.2,0.3,0.4V22.3c-1,0-1.8-0.8-2-1.7v10.5c0.1,0.1,0.2,0.1,0.3,0.2
	C62.9,31.7,63.3,32.2,63.7,32.7z"/>
<path class="st1" d="M62,39.1L62,39.1C62,39.2,62,39.2,62,39.1L62,39.1z"/>
<path class="st1" d="M63.9,92.6L63.9,92.6L64,41.3c-1,0-1.9-0.8-2-1.8v54.6C62.2,93.3,63,92.7,63.9,92.6z"/>
<path class="st1" d="M62,20c0,0.1,0,0.3,0,0.5v0.1V20L62,20z"/>
<path class="st1" d="M62,19.9C62,20,62,20,62,19.9v0.2C62,20.1,62,20,62,19.9z"/>
<path class="st1" d="M64,22.3L64,22.3c-0.9-0.1-1.7-0.8-1.9-1.8c0-0.1-0.1-0.3,0-0.5v0.5C62.1,21.6,63,22.3,64,22.3z"/>
<path class="st0" d="M61.7,6.3c-0.1-0.3-0.2-0.7-0.4-1s-0.4-0.7-0.7-1c-0.1-0.2-0.3-0.3-0.4-0.5c-0.2-0.2-0.3-0.3-0.5-0.5
	S59.3,3,59.2,2.8c-0.2-0.1-0.4-0.3-0.6-0.4L58,2c-0.2-0.1-0.4-0.2-0.7-0.3c-0.2-0.1-0.5-0.2-0.7-0.2s-0.5-0.1-0.7-0.1
	s-0.5,0-0.7-0.1c-0.2,0-0.4,0-0.7,0c-0.2,0-0.4,0.1-0.6,0.1c-0.2,0.1-0.4,0.1-0.6,0.2c-0.3,0.2-0.7,0.3-0.9,0.5
	c-0.3,0.2-0.5,0.4-0.6,0.6c-0.3,0.4-0.5,0.6-0.5,0.6l10.7,4V7.2C61.9,6.9,61.8,6.6,61.7,6.3z"/>
<path class="st1" d="M62,7.3L62,7.3L62,7.3L62,7.3L62,7.3z"/>
<path class="st1" d="M62,7.3L62,7.3L62,7.3L62,7.3z"/>
<path class="st1" d="M62.2,6.8c0.1-0.3,0.2-0.6,0.4-0.9c0-0.1,0.1-0.1,0.1-0.2L62,5v2.3l0,0C62.1,7.2,62.1,7,62.2,6.8z"/>
<path class="st1" d="M68,10.4L68,10.4L68,10.4L68,10.4z"/>
<path class="st1" d="M62,7.4L62,7.4L62,7.4L62,7.4z"/>
<path class="st1" d="M63.6,6.5C63.4,6,63.2,5.6,63,5.1c-0.1,0.2-0.2,0.4-0.3,0.6l0.6,0.6C63.4,6.4,63.5,6.5,63.6,6.5z"/>
<path class="st0" d="M61.9,16.7c0-0.4-0.2-0.7-0.3-1.2c-0.1-0.2-0.2-0.4-0.3-0.6c-0.1-0.2-0.2-0.4-0.3-0.5c-0.2-0.4-0.5-0.7-0.8-1
	s-0.7-0.5-1.1-0.7c-0.2-0.1-0.4-0.2-0.6-0.2l-0.3-0.1h-0.3c-0.4-0.1-0.9,0-1.3,0.1c-0.4,0.1-0.8,0.2-1.1,0.4
	c-0.2,0.1-0.3,0.2-0.5,0.3c-0.1,0.1-0.3,0.2-0.4,0.3c-0.3,0.2-0.5,0.4-0.6,0.5c-0.3,0.3-0.5,0.5-0.5,0.5L62,19v-1.9
	C62,16.9,61.9,16.8,61.9,16.7z"/>
<path class="st0" d="M62.1,18.5c0-0.3,0-0.5,0-0.8c0-0.2,0-0.4-0.1-0.6V19h0.1C62.1,18.9,62.1,18.7,62.1,18.5z"/>
<path class="st1" d="M62,13.7v-1.5c-0.2-0.2-0.5-0.3-0.7-0.4c-0.6-0.3-1.2-0.5-1.8-0.6c-0.3-0.1-0.6-0.1-0.9-0.1h-0.4l-0.4,0.1
	c-0.6,0-1.1,0.3-1.5,0.4c-0.4,0.3-0.9,0.4-1.2,0.8c-0.2,0.1-0.3,0.3-0.5,0.4c-0.1,0.1-0.2,0.3-0.3,0.4c-0.2,0.3-0.4,0.5-0.5,0.7
	c-0.2,0.4-0.4,0.6-0.4,0.6C55.5,11.1,59.6,10.9,62,13.7z"/>
<path class="st1" d="M62.2,19L62.2,19c-0.1,0.1-0.1,0.2-0.1,0.3c0,0.2,0,0.4,0,0.6c0-0.1,0.1-0.4,0.1-0.7
	C62.1,19.1,62.1,19.1,62.2,19z"/>
<path class="st1" d="M62.2,19c0,0,0,0.1,0,0.2c-0.1,0.4-0.1,0.6-0.1,0.7s0,0.2,0,0.2c0,0.2,0,0.3,0,0.5c0.2,1,1,1.6,1.9,1.7V20
	L62.2,19z"/>
<path class="st1" d="M54.5,13.4c0.1-0.1,0.3-0.2,0.4-0.3c0.2-0.1,0.3-0.2,0.5-0.3c0.3-0.2,0.7-0.3,1.1-0.4c0.4-0.1,0.8-0.1,1.3-0.1
	h0.3l0.3,0.1c0.2,0.1,0.4,0.1,0.6,0.2c0.4,0.1,0.8,0.4,1.1,0.7s0.6,0.6,0.8,1c0.1,0.2,0.2,0.3,0.3,0.5s0.2,0.4,0.3,0.6
	c0.1,0.4,0.3,0.8,0.3,1.2c0,0.1,0,0.3,0.1,0.4v-3.4c-2.4-2.8-6.5-2.6-8.6,0.8c0,0,0.2-0.2,0.5-0.5C54,13.8,54.3,13.6,54.5,13.4z"/>
<path class="st1" d="M62.3,18.3c0.1-0.4,0.2-0.8,0.3-1.2c0.1-0.4,0.3-0.9,0.5-1.4v-0.1c-0.3-0.8-0.7-1.4-1.2-1.9v3.4
	c0,0.2,0.1,0.5,0.1,0.6c0,0.3,0,0.6,0,0.8c0,0.2,0,0.3,0,0.5h0.1C62.2,18.8,62.2,18.6,62.3,18.3z"/>
<path class="st1" d="M62.6,17.1c-0.1,0.4-0.2,0.8-0.3,1.2c0,0.3-0.1,0.5-0.1,0.8L64,20v-0.7c-0.1-1.4-0.3-2.6-0.8-3.7v0.1
	C63,16.2,62.7,16.6,62.6,17.1z"/>
<path class="st0" d="M61.8,35.4c-0.1-0.4-0.3-0.8-0.4-1.2c-0.2-0.4-0.4-0.8-0.7-1.1c-0.1-0.2-0.3-0.4-0.5-0.5s-0.3-0.3-0.6-0.4
	c-0.2-0.1-0.4-0.2-0.6-0.3l-0.7-0.2c-0.2,0-0.5,0-0.7-0.1c-0.2,0-0.5,0-0.7,0c-0.3,0-0.5,0.1-0.7,0.2s-0.5,0.1-0.7,0.3
	c-0.2,0.1-0.4,0.2-0.6,0.3c-0.2,0.1-0.3,0.3-0.5,0.4c-0.4,0.2-0.6,0.6-0.8,0.8c-0.2,0.3-0.4,0.5-0.5,0.7c-0.2,0.3-0.3,0.6-0.4,0.6
	l0,0l9.3,3.4v-1.9C62,36,61.9,35.7,61.8,35.4z"/>
<path class="st0" d="M62.1,37.4c0-0.3,0-0.6-0.1-0.9c0,0,0-0.1,0-0.2v1.9l0,0C62.1,38,62.1,37.7,62.1,37.4z"/>
<path class="st1" d="M62,32.7v-1.6c-0.2-0.1-0.4-0.3-0.6-0.4c-0.3-0.1-0.6-0.3-1-0.4c-0.3-0.1-0.7-0.2-1-0.3c-0.3,0-0.7,0-1-0.1
	c-0.3,0-0.7,0.1-1,0.1s-0.6,0.2-0.9,0.3c-0.3,0.1-0.6,0.2-0.8,0.4c-0.3,0.1-0.5,0.3-0.7,0.5s-0.4,0.3-0.6,0.5
	c-0.2,0.2-0.3,0.4-0.5,0.6c-0.3,0.3-0.5,0.7-0.7,1s-0.3,0.6-0.4,0.8c-0.2,0.5-0.3,0.8-0.3,0.8l0,0C54.5,30.2,59.3,29.5,62,32.7z"/>
<path class="st1" d="M62,39c0,0,0-0.3,0.1-0.7H62l0,0C62,38.8,62,39.1,62,39L62,39L62,39z"/>
<path class="st1" d="M63.2,34.6c0.1-0.2,0.2-0.3,0.2-0.5c0.2-0.3,0.3-0.6,0.6-0.9V33c-0.1-0.1-0.2-0.2-0.3-0.4
	c-0.4-0.5-0.9-1-1.4-1.4c-0.1-0.1-0.2-0.1-0.3-0.2v1.6C62.5,33.2,62.9,33.8,63.2,34.6z"/>
<path class="st1" d="M53.6,33.5c0.2-0.3,0.5-0.6,0.8-0.8c0.2-0.1,0.3-0.3,0.5-0.4c0.2-0.1,0.4-0.2,0.6-0.3c0.2-0.1,0.4-0.2,0.7-0.3
	s0.4-0.2,0.7-0.2c0.2,0,0.5-0.1,0.7,0c0.2,0,0.5,0,0.7,0.1l0.7,0.2c0.2,0.1,0.4,0.2,0.6,0.3c0.2,0.1,0.4,0.3,0.6,0.4
	s0.3,0.3,0.5,0.5c0.3,0.3,0.5,0.8,0.7,1.1c0.1,0.4,0.3,0.8,0.4,1.2c0.1,0.4,0.2,0.7,0.2,1v-3.7c-2.7-3.1-7.5-2.4-9.3,2.2
	c0.1-0.1,0.2-0.3,0.4-0.6C53.2,34,53.4,33.7,53.6,33.5z"/>
<path class="st1" d="M62.3,37c0.1-0.4,0.3-0.9,0.4-1.4c0.1-0.3,0.3-0.7,0.4-1.1c-0.3-0.7-0.7-1.3-1.2-1.9v3.7c0,0.1,0,0.1,0,0.2
	c0,0.3,0,0.6,0.1,0.9c0,0.3,0,0.6,0,0.9h0.1c0-0.1,0-0.2,0-0.3C62.2,37.8,62.2,37.4,62.3,37z"/>
<path class="st1" d="M62,39.4C62,39.4,62,39.5,62,39.4v-0.2C62,39.3,62,39.3,62,39.4z"/>
<path class="st1" d="M64,41.3L64,41.3c-0.9-0.1-1.8-0.8-1.9-1.8c0-0.1,0-0.3,0-0.4l0,0v0.3C62.1,40.5,62.9,41.3,64,41.3z"/>
<path class="st1" d="M62.1,38.3C62,38.7,62,39,62,39s0,0.1,0,0.2c0,0.1,0,0.3,0,0.4c0.2,1,1,1.6,1.9,1.7V39L62.1,38.3z"/>
<path class="st1" d="M64,38.3c-0.1-1.5-0.3-2.7-0.8-3.8c-0.2,0.4-0.3,0.7-0.4,1.1c-0.1,0.5-0.3,1-0.4,1.4c-0.1,0.4-0.1,0.8-0.2,1.1
	c0,0.1,0,0.2,0,0.3L64,39V38.3z"/>
<path class="st0" d="M53.6,106.1c0.4,0,0.8,0,1.2-0.1s0.9-0.2,1.4-0.3c0.5-0.1,1-0.4,1.4-0.6c0.5-0.3,0.9-0.5,1.3-0.9
	c0.5-0.3,0.8-0.7,1.1-1.1s0.6-0.9,0.8-1.3c0.2-0.5,0.4-0.9,0.5-1.4s0.2-1,0.3-1.4c0-0.5,0.1-0.9,0.1-1.3c0-0.2,0-0.4,0-0.6
	c0-0.1,0-0.2,0-0.3l-10.1,9.3c0,0,0.3,0,0.8,0C53,106.2,53.3,106.1,53.6,106.1z"/>
<path class="st1" d="M62,94.1c-0.1,0.2-0.1,0.4-0.1,0.6v0.2c0,0,0,0.3,0,0.8c0,0.2,0,0.5,0,0.9c0,0.1,0,0.2,0,0.2l0,0L62,94.1
	L62,94.1z"/>
<path class="st1" d="M62.3,96.5c0-0.2-0.1-0.4-0.1-0.5c-0.1-0.6-0.2-1-0.2-1c-0.2-1.1,0.5-2.1,1.6-2.3c0.1,0,0.2,0,0.3,0v-0.1h-0.1
	c-0.9,0-1.6,0.7-1.9,1.5v2.6L62.3,96.5z"/>
<path class="st1" d="M63.2,99.8L63.2,99.8c-0.2-0.6-0.3-1.1-0.5-1.5c-0.1-0.3-0.2-0.5-0.2-0.8L62,98v-1c0,0.2,0,0.4,0,0.6
	c0,0.4-0.1,0.8-0.1,1.3c-0.1,0.4-0.2,0.9-0.3,1.4s-0.4,0.9-0.5,1.4c-0.3,0.4-0.5,0.9-0.8,1.3c-0.4,0.4-0.7,0.8-1.1,1.1
	c-0.4,0.4-0.9,0.6-1.3,0.9c-0.5,0.2-1,0.4-1.4,0.6c-0.5,0.1-0.9,0.3-1.4,0.3c-0.4,0.1-0.8,0.1-1.2,0.1s-0.7,0-0.9,0
	c-0.5,0-0.8,0-0.8,0S60.6,108.1,63.2,99.8z"/>
<path class="st1" d="M62,96.7L62,96.7c0,0.1,0,0.2,0,0.3V96.7z"/>
<path class="st1" d="M62.3,96.5L62,96.7V97v1l0.5-0.5c0-0.2-0.1-0.4-0.1-0.5C62.4,96.8,62.3,96.6,62.3,96.5z"/>
<path class="st1" d="M63.7,92.7C62.6,92.9,61.9,94,62,95c0,0,0.1,0.3,0.2,0.9c0,0.1,0.1,0.3,0.1,0.5l1.6-1.5c0,0.4,0,0.8-0.1,1.2
	L64,96v-3.4C63.9,92.7,63.8,92.7,63.7,92.7z"/>
<path class="st1" d="M62.5,97.5c0.1,0.2,0.1,0.5,0.2,0.8c0.1,0.5,0.3,1,0.5,1.5l0,0c0.3-1.1,0.6-2.3,0.7-3.7L62.5,97.5z"/>
<path class="st1" d="M63.9,95l-1.6,1.5c0,0.2,0.1,0.3,0.1,0.5s0.1,0.4,0.1,0.5l1.4-1.4C63.9,95.7,63.9,95.4,63.9,95z"/>
<path class="st1" d="M64,32.4V33c0,0,0,2.2-0.6,5c-0.8-1.7-1.4-5.3-1.4-5.3L64,32.4z"/>
<path class="st1" d="M64,100.2L64,100.2v-3.5l0,0v-0.8v-0.4l-0.1-0.9l-1.6,4.8c0,0,0,1.1,0.2,2c-3.2,6.4-10.7,4.6-10.7,4.6
	s0.3,0.1,0.8,0.2c0.3,0.1,0.6,0.1,0.9,0.2c0.4,0,0.8,0.1,1.3,0.1s1,0,1.5,0s1.1-0.2,1.7-0.3c0.6-0.2,1.2-0.3,1.8-0.7
	c0.6-0.3,1.1-0.7,1.7-1.1c0.5-0.4,1-0.9,1.4-1.4c0.2-0.4,0.5-0.7,0.7-1.1C63.9,101.5,64,100.2,64,100.2z"/>
<path class="st1" d="M64,6.6L64,6.6c0-0.2,0-0.6,0-1.3c0-1.5-1.4-3-1.4-3c-0.2-0.2-0.5-0.4-0.7-0.5c-0.3-0.2-0.5-0.3-0.8-0.5
	S60.6,1,60.3,0.9s-0.5-0.3-0.8-0.3l-0.9-0.3c-0.3-0.1-0.6-0.1-0.9-0.2C57.4,0,57.1,0,56.8,0S56.2,0,56,0c-0.3,0-0.5,0.1-0.8,0.1
	c-0.3,0.1-0.5,0.2-0.8,0.2c-0.3,0.1-0.5,0.2-0.7,0.3s-0.4,0.2-0.6,0.3c-0.3,0.3-0.7,0.5-0.9,0.8s-0.4,0.5-0.5,0.7
	c-0.2,0.4-0.3,0.7-0.3,0.7s0.2-0.2,0.5-0.6C52,2.4,52.3,2.3,52.5,2c0.2-0.2,0.6-0.3,0.9-0.5c0.2-0.1,0.4-0.1,0.6-0.2
	c0.2,0,0.4-0.1,0.6-0.1c0.2,0,0.4,0,0.7,0c0.2,0,0.5,0,0.7,0.1c0.2,0,0.5,0.1,0.7,0.1c0.2,0.1,0.5,0.1,0.7,0.2
	C57.5,1.8,57.7,1.9,58,2l0.6,0.4c0.2,0.1,0.4,0.3,0.6,0.4c0.2,0.1,0.4,0.3,0.5,0.5c0.2,0.2,0.3,0.3,0.5,0.5c0.1,0.2,0.3,0.3,0.4,0.5
	c0.3,0.3,0.5,0.7,0.7,1s0.3,0.7,0.4,1c0.1,0.3,0.2,0.6,0.2,0.9v0.1l0,0V5l0.7,0.7c0.1-0.2,0.2-0.4,0.3-0.6c0.2,0.3,0.3,0.6,0.5,0.9
	c0,0.1,0,0.2,0,0.3c0,0-0.1,0-0.1-0.1l-0.6-0.6c0,0.1-0.1,0.1-0.1,0.2c-0.2,0.3-0.3,0.7-0.4,0.9C62.1,7,62.1,7.2,62,7.3v0.1l0,0v1.9
	v2.9v1.5c0.5,0.5,0.9,1.2,1.2,1.9c0.1-0.1,0.1-0.2,0.2-0.4l0,0l0.1-0.2c0,0,0-0.1,0.1-0.1c0-0.1,0.4-0.8,0.4-1.6v-3l0,0V8l0,0V7.7
	l0,0l0,0l0,0V6.6z"/>
<path class="st0" d="M73.9,92.7C73.7,107,79.7,104,79.7,104S94,79.5,92.4,71.8c-3.3-15.7-6-19.2-7.1-34l-3-32.9
	c-0.2-0.8-0.5-1.6-1.1-2.3l-0.4-0.5c-2.3-2.9-6.8-2.8-8.9,0.3c-0.6,1-0.9,2.1-0.9,3.2v39.6C71.1,45.3,74,87.6,73.9,92.7z"/>
<path class="st0" d="M82.3,27.6c0,2.6,1.1,13.3,5.1,24.7c0,0,8.5,16.3,5.8,39.8l-0.8,3.3c-1.5,6.2-7,10.6-13.4,10.6l0,0
	c0,0-8.1-0.5-7.9-11.4V58.3V28c-0.1-8.2,11.3-8.9,11.3,0"/>
<path class="st0" d="M78.4,105.9c3.6,0.3,15.2,19.7,15.2,19.7s21.5-29.3,14.8-32.9S92.6,74.4,92.6,74.4"/>
<path class="st0" d="M82.3,27.6L81.7,16c-1-3.4-4.9-5.2-8-3.5c-0.5,0.3-1,0.6-1.4,1.1l0,0c-0.8,0.8-1.2,1.9-1.2,2.9V51
	c0,0,0.2,28.8,0,41.2s0.4,10.8,0.4,10.8"/>
<path class="st1" d="M71,19.4c0-0.1,0-0.2,0-0.4h0.1v1c0,0,0,0,0-0.1C71,19.8,71,19.6,71,19.4z"/>
<path class="st1" d="M71,38.3L71,38.3v0.8C71.1,39.1,71.1,38.8,71,38.3L71,38.3z"/>
<path class="st1" d="M69.4,32.7c-0.1,0.1-0.2,0.2-0.3,0.4V22.3c1,0,1.8-0.8,2-1.7v10.5c-0.1,0.1-0.2,0.1-0.3,0.2
	C70.2,31.7,69.8,32.2,69.4,32.7z"/>
<path class="st1" d="M71.1,39.1L71.1,39.1C71.1,39.2,71.1,39.2,71.1,39.1L71.1,39.1z"/>
<path class="st1" d="M69.2,92.6C69.2,92.6,69.1,92.6,69.2,92.6l-0.1-51.3c1,0,1.9-0.8,2-1.8v54.6C70.8,93.3,70.1,92.7,69.2,92.6z"/>
<path class="st1" d="M71.1,20c0,0.1,0,0.3,0,0.5v0.1V20L71.1,20z"/>
<path class="st1" d="M71.1,19.9C71.1,20,71.1,20,71.1,19.9v0.2C71.1,20.1,71.1,20,71.1,19.9z"/>
<path class="st1" d="M69.1,22.3L69.1,22.3c0.9-0.1,1.7-0.8,1.9-1.8c0-0.1,0.1-0.3,0-0.5v0.5C70.9,21.6,70.1,22.3,69.1,22.3z"/>
<path class="st0" d="M71.4,6.3c0.1-0.3,0.2-0.7,0.4-1c0.2-0.3,0.4-0.7,0.7-1c0.1-0.2,0.3-0.3,0.4-0.5c0.2-0.2,0.3-0.3,0.5-0.5
	s0.4-0.3,0.5-0.5c0.2-0.1,0.4-0.3,0.6-0.4L75.1,2c0.2-0.1,0.4-0.2,0.7-0.3c0.2-0.1,0.5-0.2,0.7-0.2s0.5-0.1,0.7-0.1s0.5,0,0.7-0.1
	c0.2,0,0.4,0,0.7,0c0.2,0,0.4,0.1,0.6,0.1c0.2,0.1,0.4,0.1,0.6,0.2C80,1.7,80.3,1.8,80.6,2c0.3,0.2,0.5,0.4,0.6,0.6
	c0.3,0.4,0.5,0.6,0.5,0.6L71.1,7.3V7.2C71.2,6.9,71.3,6.6,71.4,6.3z"/>
<path class="st1" d="M71.1,7.3L71.1,7.3L71.1,7.3L71.1,7.3L71.1,7.3z"/>
<path class="st1" d="M71.1,7.3L71.1,7.3C71.1,7.4,71,7.3,71.1,7.3L71.1,7.3z"/>
<path class="st1" d="M70.9,6.8c-0.1-0.3-0.2-0.6-0.4-0.9c0-0.1-0.1-0.1-0.1-0.2L71.1,5v2.3l0,0C71,7.2,70.9,7,70.9,6.8z"/>
<path class="st1" d="M68,10.4C68.1,10.4,68.1,10.4,68,10.4L68,10.4C68.1,10.4,68.1,10.4,68,10.4z"/>
<path class="st1" d="M71.1,7.4L71.1,7.4L71.1,7.4L71.1,7.4z"/>
<path class="st1" d="M69.4,6.5C69.6,6,69.8,5.6,70,5.1c0.1,0.2,0.2,0.4,0.3,0.6l-0.6,0.6C69.7,6.4,69.6,6.5,69.4,6.5z"/>
<path class="st0" d="M71.1,16.6c0-0.4,0.2-0.7,0.3-1.2c0.1-0.2,0.2-0.4,0.3-0.6c0.1-0.2,0.2-0.4,0.3-0.5c0.2-0.4,0.5-0.7,0.8-1
	s0.7-0.5,1.1-0.7c0.2-0.1,0.4-0.2,0.6-0.2l0.3-0.1h0.3c0.4-0.1,0.9,0,1.3,0.1s0.8,0.2,1.1,0.4c0.2,0.1,0.3,0.2,0.5,0.3
	c0.1,0.1,0.3,0.2,0.4,0.3c0.3,0.2,0.5,0.4,0.6,0.5c0.3,0.3,0.5,0.5,0.5,0.5L71.1,19v-2C71.1,16.9,71.1,16.8,71.1,16.6z"/>
<path class="st0" d="M71,18.5c0-0.3,0-0.5,0-0.8c0-0.2,0-0.4,0.1-0.6V19H71C71,18.9,71,18.7,71,18.5z"/>
<path class="st1" d="M71.1,13.7v-1.5c0.2-0.2,0.5-0.3,0.7-0.4c0.6-0.3,1.2-0.5,1.8-0.6c0.3-0.1,0.6-0.1,0.9-0.1h0.4l0.4,0.1
	c0.6,0,1.1,0.3,1.5,0.4c0.4,0.3,0.9,0.4,1.2,0.8c0.2,0.1,0.3,0.3,0.5,0.4c0.1,0.1,0.2,0.3,0.3,0.4c0.2,0.3,0.4,0.5,0.5,0.7
	c0.2,0.4,0.4,0.6,0.4,0.6C77.5,11.1,73.5,10.9,71.1,13.7z"/>
<path class="st1" d="M70.9,19L70.9,19c0.1,0.1,0.1,0.2,0.1,0.3c0,0.2,0,0.4,0,0.6c0-0.1-0.1-0.4-0.1-0.7
	C70.9,19.1,70.9,19.1,70.9,19z"/>
<path class="st1" d="M70.9,19c0,0,0,0.1,0,0.2c0.1,0.4,0.1,0.6,0.1,0.7s0,0.2,0,0.2c0,0.2,0,0.3,0,0.5c-0.2,1-1,1.6-1.9,1.7V20
	L70.9,19z"/>
<path class="st1" d="M78.5,13.4c-0.1-0.1-0.3-0.2-0.4-0.3c-0.2-0.1-0.3-0.2-0.5-0.3c-0.3-0.2-0.7-0.3-1.1-0.4
	c-0.4-0.1-0.8-0.1-1.3-0.1h-0.3l-0.3,0.1c-0.2,0.1-0.4,0.1-0.6,0.2c-0.4,0.1-0.8,0.4-1.1,0.7c-0.3,0.3-0.6,0.6-0.8,1
	c-0.1,0.2-0.2,0.3-0.3,0.5c-0.1,0.2-0.2,0.4-0.3,0.6c-0.1,0.4-0.3,0.8-0.3,1.2c0,0.1,0,0.3-0.1,0.4v-3.4c2.4-2.8,6.5-2.6,8.6,0.8
	c0,0-0.2-0.2-0.5-0.5C79,13.8,78.8,13.6,78.5,13.4z"/>
<path class="st1" d="M70.8,18.3c-0.1-0.4-0.2-0.8-0.3-1.2c-0.1-0.4-0.3-0.9-0.5-1.4v-0.1c0.3-0.8,0.7-1.4,1.2-1.9V17
	c0,0.2-0.1,0.5-0.1,0.6c0,0.3,0,0.6,0,0.8c0,0.2,0,0.3,0,0.5H71C70.9,18.8,70.8,18.6,70.8,18.3z"/>
<path class="st1" d="M70.5,17.1c0.1,0.4,0.2,0.8,0.3,1.2c0,0.3,0.1,0.5,0.1,0.8L69.1,20v-0.7c0.1-1.4,0.3-2.6,0.8-3.7v0.1
	C70.1,16.2,70.4,16.6,70.5,17.1z"/>
<path class="st0" d="M71.2,35.4c0.1-0.4,0.3-0.8,0.4-1.2c0.2-0.4,0.4-0.8,0.7-1.1c0.1-0.2,0.3-0.4,0.5-0.5s0.3-0.3,0.6-0.4
	c0.2-0.1,0.4-0.2,0.6-0.3l0.7-0.2c0.2,0,0.5,0,0.7-0.1c0.2,0,0.5,0,0.7,0c0.3,0,0.5,0.1,0.7,0.2s0.5,0.1,0.7,0.3
	c0.2,0.1,0.4,0.2,0.6,0.3s0.3,0.3,0.5,0.4c0.4,0.2,0.6,0.6,0.8,0.8c0.2,0.3,0.4,0.5,0.5,0.7c0.2,0.3,0.3,0.6,0.4,0.6l0,0L71,38.3
	v-1.9C71.1,36,71.2,35.7,71.2,35.4z"/>
<path class="st0" d="M71,37.4c0-0.3,0-0.6,0.1-0.9c0,0,0-0.1,0-0.2v1.9l0,0C71,38,71,37.7,71,37.4z"/>
<path class="st1" d="M71.1,32.7v-1.6c0.2-0.1,0.4-0.3,0.6-0.4c0.3-0.1,0.6-0.3,1-0.4c0.3-0.1,0.7-0.2,1-0.3c0.3,0,0.7,0,1-0.1
	c0.3,0,0.7,0.1,1,0.1s0.6,0.2,0.9,0.3c0.3,0.1,0.6,0.2,0.8,0.4c0.3,0.1,0.5,0.3,0.7,0.5s0.4,0.3,0.6,0.5s0.3,0.4,0.5,0.6
	c0.3,0.3,0.5,0.7,0.7,1s0.3,0.6,0.4,0.8c0.2,0.5,0.3,0.8,0.3,0.8l0,0C78.6,30.2,73.8,29.5,71.1,32.7z"/>
<path class="st1" d="M71.1,39c0,0,0-0.3-0.1-0.7h0.1l0,0C71.1,38.8,71.1,39.1,71.1,39L71.1,39L71.1,39z"/>
<path class="st1" d="M69.9,34.5c-0.1-0.2-0.2-0.3-0.2-0.5c-0.2-0.3-0.3-0.6-0.6-0.9V33c0.1-0.1,0.2-0.2,0.3-0.4
	c0.4-0.5,0.9-1,1.4-1.4c0.1-0.1,0.2-0.1,0.3-0.2v1.6C70.6,33.2,70.2,33.8,69.9,34.5z"/>
<path class="st1" d="M79.4,33.5c-0.2-0.3-0.5-0.6-0.8-0.8c-0.2-0.1-0.3-0.3-0.5-0.4c-0.2-0.1-0.4-0.2-0.6-0.3
	c-0.2-0.1-0.4-0.2-0.7-0.3s-0.4-0.2-0.7-0.2c-0.2,0-0.5-0.1-0.7,0c-0.2,0-0.5,0-0.7,0.1L74,31.8c-0.2,0.1-0.4,0.2-0.6,0.3
	c-0.2,0.1-0.4,0.3-0.6,0.4s-0.3,0.3-0.5,0.5c-0.3,0.3-0.5,0.8-0.7,1.1c-0.1,0.4-0.3,0.8-0.4,1.2S71,36,71,36.3v-3.7
	c2.7-3.1,7.5-2.4,9.3,2.2c-0.1-0.1-0.2-0.3-0.4-0.6C79.8,34,79.7,33.7,79.4,33.5z"/>
<path class="st1" d="M70.7,37c-0.1-0.4-0.3-0.9-0.4-1.4c-0.1-0.3-0.3-0.7-0.4-1.1c0.3-0.7,0.7-1.3,1.2-1.9v3.7c0,0.1,0,0.1,0,0.2
	c0,0.3,0,0.6-0.1,0.9c0,0.3,0,0.6,0,0.9h-0.1c0-0.1,0-0.2,0-0.3C70.9,37.8,70.8,37.4,70.7,37z"/>
<path class="st1" d="M71.1,39.4C71.1,39.4,71.1,39.5,71.1,39.4v-0.2C71.1,39.3,71.1,39.3,71.1,39.4z"/>
<path class="st1" d="M69.1,41.3L69.1,41.3c0.9-0.1,1.8-0.8,1.9-1.8c0-0.1,0-0.3,0-0.4l0,0v0.3C71,40.5,70.1,41.3,69.1,41.3z"/>
<path class="st1" d="M71,38.3c0.1,0.4,0.1,0.7,0.1,0.7s0,0.1,0,0.2c0,0.1,0,0.3,0,0.4c-0.2,1-1,1.6-1.9,1.7V39L71,38.3z"/>
<path class="st1" d="M69.1,38.3c0.1-1.5,0.3-2.7,0.8-3.8c0.2,0.4,0.3,0.7,0.4,1.1c0.1,0.5,0.3,1,0.4,1.4s0.1,0.8,0.2,1.1
	c0,0.1,0,0.2,0,0.3L69.1,39V38.3z"/>
<path class="st0" d="M79.4,106.1c-0.4,0-0.8,0-1.2-0.1c-0.4-0.1-0.9-0.2-1.4-0.3c-0.5-0.1-1-0.4-1.4-0.6c-0.5-0.3-0.9-0.5-1.3-0.9
	c-0.5-0.3-0.8-0.7-1.1-1.1c-0.3-0.4-0.6-0.9-0.8-1.3c-0.2-0.5-0.4-0.9-0.5-1.4s-0.2-1-0.3-1.4c0-0.5-0.1-0.9-0.1-1.3
	c0-0.2,0-0.4,0-0.6c0-0.1,0-0.2,0-0.3l10.1,9.3c0,0-0.3,0-0.8,0C80.1,106.1,79.8,106.1,79.4,106.1z"/>
<path class="st1" d="M71.1,94.1c0.1,0.2,0.1,0.4,0.1,0.6v0.2c0,0,0,0.3,0,0.8c0,0.2,0,0.5,0,0.9c0,0.1,0,0.2,0,0.2l0,0L71.1,94.1
	L71.1,94.1z"/>
<path class="st1" d="M70.8,96.5c0-0.2,0.1-0.4,0.1-0.5c0.1-0.6,0.1-1,0.1-1c0.2-1.1-0.5-2.1-1.6-2.3c-0.1,0-0.2,0-0.3,0v-0.1h0.1
	c0.9,0,1.6,0.7,1.9,1.5v2.6L70.8,96.5z"/>
<path class="st1" d="M69.9,99.8L69.9,99.8c0.2-0.6,0.3-1.1,0.5-1.5c0.1-0.3,0.2-0.5,0.2-0.8l0.5,0.5v-1c0,0.2,0,0.4,0,0.6
	c0,0.4,0.1,0.8,0.1,1.3c0.1,0.4,0.2,0.9,0.3,1.4c0.1,0.5,0.4,0.9,0.5,1.4c0.3,0.4,0.5,0.9,0.8,1.3c0.4,0.4,0.7,0.8,1.1,1.1
	c0.4,0.4,0.9,0.6,1.3,0.9c0.5,0.2,1,0.4,1.4,0.6c0.5,0.1,0.9,0.3,1.4,0.3c0.4,0.1,0.8,0.1,1.2,0.1c0.4,0,0.7,0,0.9,0
	c0.5,0,0.8,0,0.8,0S72.5,108.1,69.9,99.8z"/>
<path class="st1" d="M71.1,96.7L71.1,96.7c0,0.1,0,0.2,0,0.3V96.7z"/>
<path class="st1" d="M70.8,96.5l0.3,0.3V97v1l-0.5-0.5c0-0.2,0.1-0.4,0.1-0.5C70.7,96.8,70.7,96.6,70.8,96.5z"/>
<path class="st1" d="M69.4,92.7c1.1,0.2,1.8,1.2,1.6,2.3c0,0-0.1,0.3-0.2,0.9c0,0.1-0.1,0.3-0.1,0.5l-1.6-1.5c0,0.4,0,0.8,0.1,1.2
	L69.1,96v-3.4C69.2,92.7,69.3,92.7,69.4,92.7z"/>
<path class="st1" d="M70.6,97.5c-0.1,0.2-0.1,0.5-0.2,0.8c-0.1,0.5-0.3,1-0.5,1.5l0,0c-0.3-1.1-0.6-2.3-0.7-3.7L70.6,97.5z"/>
<path class="st1" d="M69.1,94.9l1.6,1.5c0,0.2-0.1,0.3-0.1,0.5s-0.1,0.4-0.1,0.5L69.1,96C69.2,95.7,69.1,95.4,69.1,94.9z"/>
<path class="st1" d="M69.1,32.4V33c0,0,0,2.2,0.6,5c0.8-1.7,1.4-5.3,1.4-5.3L69.1,32.4z"/>
<path class="st1" d="M69.1,100.2L69.1,100.2v-3.5l0,0v-0.8v-0.4l0.1-0.9l1.6,4.8c0,0,0,1.1-0.2,2c3.2,6.4,10.7,4.6,10.7,4.6
	s-0.3,0.1-0.8,0.2c-0.3,0.1-0.6,0.1-0.9,0.2c-0.4,0-0.8,0.1-1.3,0.1s-1,0-1.5,0s-1.1-0.2-1.7-0.3c-0.6-0.2-1.2-0.3-1.8-0.7
	c-0.6-0.3-1.1-0.7-1.7-1.1c-0.5-0.4-1-0.9-1.4-1.4c-0.2-0.4-0.5-0.7-0.7-1.1C69.1,101.5,69.1,100.2,69.1,100.2z"/>
<path class="st1" d="M69.1,6.6L69.1,6.6c0-0.2,0-0.6,0-1.3c0-1.5,1.4-3,1.4-3c0.2-0.2,0.5-0.4,0.7-0.5c0.3-0.2,0.5-0.3,0.8-0.5
	s0.5-0.3,0.8-0.4s0.5-0.3,0.8-0.3l0.9-0.3c0.3-0.1,0.6-0.1,0.9-0.2C75.7,0,76,0,76.3,0s0.6,0,0.8,0c0.3,0,0.5,0.1,0.8,0.1
	c0.3,0.1,0.5,0.2,0.8,0.2c0.3,0.1,0.5,0.2,0.7,0.3C79.6,0.8,79.8,0.9,80,1c0.3,0.3,0.7,0.5,0.9,0.8c0.2,0.3,0.4,0.5,0.5,0.7
	c0.2,0.4,0.3,0.7,0.3,0.7S81.5,3,81.2,2.6c-0.1-0.2-0.4-0.3-0.6-0.6c-0.2-0.2-0.6-0.3-0.9-0.5c-0.2-0.1-0.4-0.1-0.6-0.2
	c-0.2,0-0.4-0.1-0.6-0.1s-0.4,0-0.7,0c-0.2,0-0.5,0-0.7,0.1c-0.2,0-0.5,0.1-0.7,0.1c-0.2,0.1-0.5,0.1-0.7,0.2S75.3,1.8,75,1.9
	l-0.6,0.4c-0.2,0.1-0.4,0.3-0.6,0.4c-0.2,0.1-0.4,0.3-0.5,0.5c-0.2,0.2-0.3,0.3-0.5,0.5c-0.1,0.2-0.3,0.3-0.4,0.5
	c-0.3,0.3-0.5,0.7-0.7,1s-0.3,0.7-0.4,1s-0.2,0.6-0.2,0.9v0.1l0,0V5l-0.7,0.7c-0.1-0.2-0.2-0.4-0.3-0.6c-0.2,0.3-0.3,0.6-0.5,0.9
	c0,0.1,0,0.2,0,0.3c0,0,0.1,0,0.1-0.1l0.6-0.6c0,0.1,0.1,0.1,0.1,0.2c0.2,0.3,0.3,0.7,0.4,0.9C70.9,7,71,7.2,71,7.3v0.1l0,0v1.9v2.9
	v1.5c-0.5,0.5-0.9,1.2-1.2,1.9c-0.1-0.1-0.1-0.2-0.2-0.4l0,0L69.5,15c0,0,0-0.1-0.1-0.1c0-0.1-0.4-0.8-0.4-1.6v-3l0,0V8l0,0V7.7l0,0
	l0,0l0,0L69.1,6.6L69.1,6.6z"/>
<polygon class="st2" points="48.3,118.7 22.1,90.8 0,108.6 40.4,128 "/>
<polygon class="st2" points="133.1,108.6 110.9,90.8 84.7,118.7 92.6,128 "/>
</svg>
