<?xml version="1.0" encoding="utf-8"?>
<!-- Generator: Adobe Illustrator 25.0.0, SVG Export Plug-In . SVG Version: 6.00 Build 0)  -->
<svg version="1.1" id="Layer_1" xmlns:serif="http://www.serif.com/"
	 xmlns="http://www.w3.org/2000/svg" xmlns:xlink="http://www.w3.org/1999/xlink" x="0px" y="0px" viewBox="0 0 841.9 741.3"
	 style="enable-background:new 0 0 841.9 741.3;" xml:space="preserve">
<style type="text/css">
	.st0{fill:#ED1F24;}
</style>
<path class="st0" d="M824.3,244c-9.7-36.2-38.2-64.7-74.4-74.4C684.2,152,420.9,152,420.9,152S157.7,152,92,169.6
	c-36.2,9.7-64.7,38.2-74.4,74.4C0,309.7,0,446.7,0,446.7s0,137,17.6,202.6c9.7,36.2,38.2,64.8,74.4,74.4
	c65.7,17.6,328.9,17.6,328.9,17.6s263.3,0,328.9-17.6c36.2-9.7,64.7-38.2,74.4-74.4c17.6-65.6,17.6-202.6,17.6-202.6
	S841.9,309.7,824.3,244z M336.7,573V320.4l218.7,126.3L336.7,573z"/>
</svg>
